<svg xmlns="http://www.w3.org/2000/svg" viewBox="0 0 256 256">
  <rect width="256" height="256" fill="#1a1a1a"/>
  <path d="M128 60c-8.8 0-16 7.2-16 16s7.2 16 16 16 16-7.2 16-16-7.2-16-16-16z" fill="#d4af37"/>
  <path d="M128 92c-4.4 0-8 3.6-8 8v20h16v-20c0-4.4-3.6-8-8-8z" fill="#4a4a4a"/>
  <path d="M60 120l68-20 68 20v8H60v-8z" fill="#d4af37"/>
  <rect x="64" y="128" width="128" height="12" rx="2" fill="#2a2a2a"/>
  <path d="M80 140v56c0 4.4 3.6 8 8 8h80c4.4 0 8-3.6 8-8v-56H80z" fill="#3a3a3a"/>
  <path d="M100 150h56v40h-56z" fill="#4a4a4a"/>
  <rect x="118" y="160" width="20" height="3" fill="#d4af37" opacity="0.6"/>
  <rect x="118" y="170" width="20" height="3" fill="#d4af37" opacity="0.6"/>
</svg>